<?xml version="1.0" encoding="UTF-8"?>
<svg version="1.1" xmlns="http://www.w3.org/2000/svg" width="1024" height="1024">
<path d="M0 0 C0.7425 0.825 1.485 1.65 2.25 2.5 C2.71792969 2.9640625 3.18585938 3.428125 3.66796875 3.90625 C13.93064219 14.67018513 16.55083338 28.32171955 16.5284729 42.56614685 C16.53347984 43.90037739 16.5393568 45.2346049 16.54602563 46.56882817 C16.56179154 50.22433514 16.56525443 53.87976518 16.56667423 57.53530204 C16.57037424 61.48138665 16.58553273 65.42742934 16.59928894 69.37348938 C16.6215467 76.20672096 16.63656891 83.03993759 16.64665604 89.87319756 C16.66125076 99.75290005 16.68678982 109.63255049 16.71498732 119.51222242 C16.76044089 135.54190727 16.79706164 151.57159963 16.828125 167.60131836 C16.85831642 183.17131873 16.89266942 198.74130077 16.93261719 214.3112793 C16.93630951 215.75123956 16.93630951 215.75123956 16.94007643 217.22028994 C16.95245114 222.03626662 16.96490765 226.85224308 16.97740483 231.66821945 C17.08095114 271.61212087 17.17016149 311.55604457 17.25 351.5 C17.87567871 351.19707031 18.50135742 350.89414062 19.14599609 350.58203125 C21.9704062 349.21732835 24.79764837 347.85859753 27.625 346.5 C28.60984375 346.02304687 29.5946875 345.54609375 30.609375 345.0546875 C31.55039062 344.60351562 32.49140625 344.15234375 33.4609375 343.6875 C34.33024902 343.26855469 35.19956055 342.84960938 36.09521484 342.41796875 C38.25 341.5 38.25 341.5 40.25 341.5 C40.58 340.84 40.91 340.18 41.25 339.5 C43.13604095 338.5413666 45.06272437 337.66284794 47 336.8125 C55.11831152 333.14796289 63.02734593 329.08813823 70.9375 325 C71.55338989 324.68334381 72.16927979 324.36668762 72.80383301 324.04043579 C81.10512055 319.76972524 89.23529707 315.2879804 97.25 310.5 C96.92 309.84 96.59 309.18 96.25 308.5 C97.4875 308.4071875 97.4875 308.4071875 98.75 308.3125 C102.69371917 307.39699376 105.21133446 305.81908709 108.515625 303.55859375 C110.25 302.5 110.25 302.5 112.25 302.5 C112.58 301.84 112.91 301.18 113.25 300.5 C114.73994844 299.61262628 116.26930105 298.7911482 117.8125 298 C124.87624496 294.24307973 131.59418625 289.99234314 138.34472656 285.70751953 C140.10895841 284.58938899 141.87762996 283.47877021 143.6484375 282.37109375 C144.63070313 281.75363281 145.61296875 281.13617188 146.625 280.5 C147.47835938 279.96375 148.33171875 279.4275 149.2109375 278.875 C151.35100735 277.52627917 151.35100735 277.52627917 153.25 275.5 C154.73659345 274.5413832 156.23961798 273.6081804 157.75 272.6875 C163.09980255 269.33683419 168.16479253 265.67478932 173.25 261.9375 C193.13580218 247.46856735 193.13580218 247.46856735 205.81640625 248.76171875 C216.31255312 250.50840579 223.57585033 255.18591641 230.25 263.5 C235.16859813 271.51462783 237.31502259 279.82069824 235.5625 289.125 C232.09511235 302.02005603 223.15285024 309.16501774 212.6875 316.8125 C211.80328369 317.46565186 210.91906738 318.11880371 210.00805664 318.79174805 C208.23261739 320.10214153 206.45523692 321.40990959 204.67578125 322.71484375 C202.62665163 324.22281837 200.59067016 325.7453099 198.5625 327.28125 C180.25422125 341.06984558 160.74166445 353.46601586 141.25 365.5 C140.34991211 366.05977539 140.34991211 366.05977539 139.43164062 366.63085938 C119.01060085 379.29882642 97.65091935 390.59468149 76.25 401.5 C75.12916016 402.07137695 74.00832031 402.64275391 72.85351562 403.23144531 C58.95389022 410.29575246 44.99465712 417.16200306 30.70681763 423.41378784 C27.95280609 424.63139585 25.21141261 425.87501639 22.47094727 427.12280273 C21.490298 427.56913559 20.50964874 428.01546844 19.49928284 428.47532654 C18.7570195 428.81346878 18.01475616 429.15161102 17.25 429.5 C17.25041636 430.34234444 17.25083273 431.18468887 17.25126171 432.0525589 C17.2639032 459.08269049 17.26244346 486.11281222 17.25136471 513.14294434 C17.25045646 515.37715656 17.24958721 517.6113688 17.24875736 519.84558105 C17.23794215 548.75240393 17.20331794 577.65902787 17.11790657 606.56573486 C17.08285034 618.6161118 17.05782169 630.6663658 17.05444336 642.71679688 C17.05139944 653.49593608 17.03094955 664.27487694 16.98947543 675.05393934 C16.96837624 680.68313981 16.95543221 686.31205922 16.96384621 691.94129944 C16.97140479 697.16943029 16.95549117 702.39697629 16.92193985 707.625 C16.9137637 709.52479835 16.91388835 711.42465552 16.92340279 713.32444763 C17.0057324 731.57173876 13.34264828 746.73438779 0.6875 760.6875 C-10.94959808 771.62816943 -26.19187602 777.16858905 -42.01318359 776.97094727 C-56.52378911 776.39107677 -70.14512795 770.62413451 -80.80859375 760.6953125 C-93.48660953 746.35920613 -96.86092602 730.81582114 -96.95532227 712.1171875 C-96.96522186 710.89682297 -96.97512146 709.67645844 -96.98532104 708.41911316 C-97.01137359 705.09531812 -97.03329066 701.77154536 -97.05332303 698.44771194 C-97.07530202 694.96568565 -97.10263201 691.48370132 -97.12937927 688.00170898 C-97.17914604 681.41817013 -97.22414377 674.83460778 -97.26740164 668.25102329 C-97.31691155 660.75155735 -97.37177834 653.25213354 -97.42708123 645.75270844 C-97.54065517 630.33517796 -97.64754701 614.91760863 -97.75 599.5 C-98.49052675 599.18815419 -99.2310535 598.87630838 -99.99402046 598.5550127 C-103.39254884 597.12299307 -106.79027263 595.68907379 -110.18798828 594.25512695 C-111.93508842 593.51945873 -111.93508842 593.51945873 -113.71748352 592.76892853 C-122.7859037 588.93938144 -131.73998129 584.92249723 -140.625 580.6875 C-142.06281419 580.00616099 -143.50064001 579.32484651 -144.93847656 578.64355469 C-165.39052777 568.92729339 -185.62530445 558.83108028 -205.40722656 547.80371094 C-207.49283874 546.64310558 -209.58455484 545.49485379 -211.6796875 544.3515625 C-224.22262056 537.45987729 -236.39102116 529.91325769 -248.58984375 522.43554688 C-251.19186217 520.8418508 -253.7979799 519.2552985 -256.40625 517.671875 C-272.55249361 507.8057195 -287.9647811 496.73621624 -302.81445312 485.01855469 C-304.68995493 483.54710902 -306.58585677 482.10560477 -308.484375 480.6640625 C-316.71003314 474.26013332 -322.68939541 467.03669977 -324.75 456.5 C-325.76190909 447.19375413 -323.32239927 438.93930289 -318.125 431.1875 C-312.71571855 424.5351766 -305.08313257 420.86608731 -296.75 419.5 C-283.3826289 418.26228045 -273.49585237 426.10462756 -263.18676758 433.46606445 C-262.50638428 433.95163818 -261.82600098 434.43721191 -261.125 434.9375 C-260.42463623 435.43789795 -259.72427246 435.9382959 -259.00268555 436.45385742 C-248.52131287 443.87346099 -237.61611983 450.66284707 -226.75 457.5 C-225.70489258 458.15790527 -225.70489258 458.15790527 -224.63867188 458.82910156 C-216.19372604 464.1268914 -207.59582124 469.16911327 -198.98583984 474.19238281 C-196.79535203 475.47347614 -194.61028291 476.76341964 -192.42578125 478.0546875 C-161.49446988 496.25218297 -129.4769027 511.72010846 -96.75 526.5 C-96.75 442.35 -96.75 358.2 -96.75 271.5 C-98.4 271.17 -100.05 270.84 -101.75 270.5 C-104.53092084 269.50849025 -107.26248399 268.47529411 -110 267.375 C-110.84409424 267.03662109 -111.68818848 266.69824219 -112.55786133 266.34960938 C-126.22749135 260.7702662 -139.60484985 254.48950081 -153.00738525 248.30328369 C-155.32966511 247.23279491 -157.65527897 246.16961906 -159.98046875 245.10546875 C-169.45069908 240.74316356 -178.66969441 235.9543645 -187.86132812 231.03564453 C-190.51099533 229.62705708 -193.16844341 228.23425703 -195.82939148 226.84712219 C-213.91655959 217.41246547 -231.46016914 207.32911244 -248.75 196.5 C-249.87776855 195.79472168 -249.87776855 195.79472168 -251.02832031 195.07519531 C-254.96921278 192.60003829 -258.86632495 190.06434046 -262.75 187.5 C-264.17185228 186.57288183 -265.59372901 185.64580113 -267.015625 184.71875 C-280.33273843 175.98971821 -293.01224474 166.57748947 -305.4375 156.625 C-306.0970166 156.10172119 -306.7565332 155.57844238 -307.43603516 155.03930664 C-316.34264167 147.81521268 -321.78415303 139.83117419 -323.5625 128.3671875 C-324.21195194 118.43598488 -320.6926404 109.96486531 -314.625 102.3125 C-308.84637536 96.05335007 -301.66632625 92.86097495 -293.18359375 92.4375 C-279.9984984 92.77612203 -269.83412267 101.71066196 -259.31832886 108.81420898 C-247.01968018 117.10974689 -234.60810413 125.09184459 -221.75 132.5 C-220.89647949 132.9940332 -220.04295898 133.48806641 -219.16357422 133.99707031 C-213.04567938 137.5336458 -206.90398809 141.02668578 -200.75 144.5 C-199.95287598 144.95149414 -199.15575195 145.40298828 -198.33447266 145.86816406 C-188.79314516 151.26531872 -179.18353699 156.44200977 -169.32714844 161.24023438 C-166.28751559 162.72607234 -163.25771345 164.23131068 -160.2265625 165.734375 C-145.3762709 173.04888876 -130.38544462 179.93188629 -115.19140625 186.50390625 C-113.389571 187.28590139 -111.58785328 188.06816735 -109.78625488 188.85070801 C-105.44217826 190.73691478 -101.09655138 192.61950348 -96.75 194.5 C-96.75276538 193.69346167 -96.75553076 192.88692333 -96.75837994 192.05594444 C-96.82479114 172.38141602 -96.874354 152.70691013 -96.90543652 133.03229332 C-96.92086942 123.51758154 -96.94189012 114.00294483 -96.97631836 104.48828125 C-97.00633069 96.19001322 -97.02560096 87.8917996 -97.03226548 79.5934788 C-97.0361578 75.20437481 -97.04522968 70.81542639 -97.06719017 66.42637253 C-97.08774285 62.28463682 -97.09379639 58.14311891 -97.08932304 54.00133705 C-97.09013993 52.49140166 -97.09599274 50.98145802 -97.10761642 49.47156715 C-97.25051055 29.9306999 -93.30125187 13.21835155 -79.27734375 -1.1640625 C-56.45658407 -22.25651117 -22.3894953 -20.35408664 0 0 Z " fill="#000000" transform="translate(551.75,139.5)"/>
<path d="M0 0 C2 1 2 1 2 1 Z " fill="#070505" transform="translate(424,727)"/>
<path d="" fill="#0F110E" transform="translate(0,0)"/>
<path d="M0 0 C2 1 2 1 2 1 Z " fill="#111413" transform="translate(270,560)"/>
<path d="" fill="#101112" transform="translate(0,0)"/>
<path d="" fill="#0B0B0A" transform="translate(0,0)"/>
<path d="M0 0 C2 1 2 1 2 1 Z " fill="#0C0C0B" transform="translate(275,319)"/>
<path d="" fill="#B3C1B3" transform="translate(0,0)"/>
<path d="" fill="#828D81" transform="translate(0,0)"/>
<path d="" fill="#5F6A61" transform="translate(0,0)"/>
<path d="" fill="#CCD8CA" transform="translate(0,0)"/>
<path d="" fill="#566059" transform="translate(0,0)"/>
<path d="" fill="#B5C2B5" transform="translate(0,0)"/>
<path d="" fill="#CCD9CB" transform="translate(0,0)"/>
<path d="" fill="#BDCBBF" transform="translate(0,0)"/>
<path d="" fill="#666F67" transform="translate(0,0)"/>
<path d="" fill="#A1ADA0" transform="translate(0,0)"/>
<path d="" fill="#849184" transform="translate(0,0)"/>
<path d="" fill="#535E56" transform="translate(0,0)"/>
<path d="" fill="#B1C0B2" transform="translate(0,0)"/>
<path d="" fill="#BFCFC1" transform="translate(0,0)"/>
<path d="" fill="#B0BDAF" transform="translate(0,0)"/>
<path d="" fill="#171716" transform="translate(0,0)"/>
<path d="" fill="#151514" transform="translate(0,0)"/>
<path d="" fill="#929F90" transform="translate(0,0)"/>
<path d="" fill="#121515" transform="translate(0,0)"/>
<path d="" fill="#B5C2B4" transform="translate(0,0)"/>
<path d="" fill="#414943" transform="translate(0,0)"/>
<path d="" fill="#C3D0C2" transform="translate(0,0)"/>
<path d="" fill="#747D76" transform="translate(0,0)"/>
<path d="" fill="#111312" transform="translate(0,0)"/>
<path d="" fill="#6D796F" transform="translate(0,0)"/>
<path d="" fill="#0F1210" transform="translate(0,0)"/>
<path d="" fill="#9FAB9E" transform="translate(0,0)"/>
<path d="" fill="#8D9C90" transform="translate(0,0)"/>
<path d="" fill="#353934" transform="translate(0,0)"/>
<path d="" fill="#7A867E" transform="translate(0,0)"/>
<path d="" fill="#8C9A8E" transform="translate(0,0)"/>
<path d="" fill="#A6B5A5" transform="translate(0,0)"/>
<path d="" fill="#C5D1C4" transform="translate(0,0)"/>
<path d="" fill="#4E564F" transform="translate(0,0)"/>
<path d="" fill="#A4B5A6" transform="translate(0,0)"/>
<path d="" fill="#090B09" transform="translate(0,0)"/>
<path d="" fill="#868F86" transform="translate(0,0)"/>
<path d="" fill="#96A497" transform="translate(0,0)"/>
<path d="" fill="#ABB9AC" transform="translate(0,0)"/>
<path d="" fill="#0D0C0A" transform="translate(0,0)"/>
<path d="" fill="#0E0F0F" transform="translate(0,0)"/>
<path d="" fill="#0F100F" transform="translate(0,0)"/>
<path d="" fill="#0F110F" transform="translate(0,0)"/>
<path d="" fill="#BDCBBD" transform="translate(0,0)"/>
<path d="" fill="#141513" transform="translate(0,0)"/>
<path d="" fill="#10110D" transform="translate(0,0)"/>
<path d="" fill="#7F8F82" transform="translate(0,0)"/>
<path d="" fill="#080808" transform="translate(0,0)"/>
<path d="" fill="#626D64" transform="translate(0,0)"/>
<path d="" fill="#151714" transform="translate(0,0)"/>
<path d="" fill="#5A625C" transform="translate(0,0)"/>
<path d="" fill="#050706" transform="translate(0,0)"/>
<path d="" fill="#181B19" transform="translate(0,0)"/>
<path d="" fill="#161718" transform="translate(0,0)"/>
<path d="" fill="#070707" transform="translate(0,0)"/>
<path d="" fill="#080A08" transform="translate(0,0)"/>
<path d="" fill="#0B0908" transform="translate(0,0)"/>
<path d="" fill="#889686" transform="translate(0,0)"/>
<path d="" fill="#1D2322" transform="translate(0,0)"/>
<path d="" fill="#0B0C0A" transform="translate(0,0)"/>
<path d="" fill="#0B080B" transform="translate(0,0)"/>
<path d="" fill="#181B19" transform="translate(0,0)"/>
<path d="" fill="#060708" transform="translate(0,0)"/>
<path d="" fill="#B3C0B5" transform="translate(0,0)"/>
<path d="" fill="#A0AFA1" transform="translate(0,0)"/>
<path d="" fill="#0A0B0D" transform="translate(0,0)"/>
<path d="" fill="#7B867A" transform="translate(0,0)"/>
<path d="" fill="#0F110F" transform="translate(0,0)"/>
<path d="" fill="#131310" transform="translate(0,0)"/>
<path d="" fill="#101211" transform="translate(0,0)"/>
<path d="" fill="#13110E" transform="translate(0,0)"/>
<path d="" fill="#545D56" transform="translate(0,0)"/>
<path d="" fill="#0D0D0A" transform="translate(0,0)"/>
<path d="" fill="#0B0B0D" transform="translate(0,0)"/>
<path d="" fill="#252827" transform="translate(0,0)"/>
<path d="" fill="#080A0B" transform="translate(0,0)"/>
<path d="" fill="#0D120F" transform="translate(0,0)"/>
<path d="" fill="#222624" transform="translate(0,0)"/>
<path d="" fill="#0E0D0F" transform="translate(0,0)"/>
<path d="" fill="#08090A" transform="translate(0,0)"/>
<path d="" fill="#131814" transform="translate(0,0)"/>
<path d="" fill="#161A1A" transform="translate(0,0)"/>
<path d="" fill="#1C2120" transform="translate(0,0)"/>
<path d="" fill="#121212" transform="translate(0,0)"/>
<path d="" fill="#161C19" transform="translate(0,0)"/>
<path d="" fill="#080807" transform="translate(0,0)"/>
<path d="" fill="#191A17" transform="translate(0,0)"/>
<path d="" fill="#090808" transform="translate(0,0)"/>
<path d="" fill="#2E332F" transform="translate(0,0)"/>
<path d="" fill="#0A0B0C" transform="translate(0,0)"/>
<path d="" fill="#A3B0A4" transform="translate(0,0)"/>
<path d="" fill="#5C665E" transform="translate(0,0)"/>
<path d="" fill="#070607" transform="translate(0,0)"/>
<path d="" fill="#040404" transform="translate(0,0)"/>
<path d="" fill="#0C0C0C" transform="translate(0,0)"/>
<path d="" fill="#090809" transform="translate(0,0)"/>
<path d="" fill="#828D81" transform="translate(0,0)"/>
<path d="" fill="#758177" transform="translate(0,0)"/>
<path d="" fill="#0F110F" transform="translate(0,0)"/>
<path d="" fill="#5B635B" transform="translate(0,0)"/>
<path d="" fill="#727E73" transform="translate(0,0)"/>
<path d="" fill="#070D08" transform="translate(0,0)"/>
<path d="" fill="#080807" transform="translate(0,0)"/>
<path d="" fill="#0C0D0E" transform="translate(0,0)"/>
<path d="" fill="#0C0C0C" transform="translate(0,0)"/>
<path d="" fill="#ABBDAE" transform="translate(0,0)"/>
<path d="" fill="#1D1D1D" transform="translate(0,0)"/>
<path d="" fill="#080A08" transform="translate(0,0)"/>
<path d="" fill="#0B0E0A" transform="translate(0,0)"/>
<path d="" fill="#080909" transform="translate(0,0)"/>
<path d="" fill="#20221B" transform="translate(0,0)"/>
<path d="" fill="#91A092" transform="translate(0,0)"/>
<path d="" fill="#0A0A0A" transform="translate(0,0)"/>
<path d="" fill="#0E1111" transform="translate(0,0)"/>
<path d="" fill="#1D2020" transform="translate(0,0)"/>
<path d="" fill="#1A1D1B" transform="translate(0,0)"/>
<path d="" fill="#1F2323" transform="translate(0,0)"/>
<path d="" fill="#A9B9AB" transform="translate(0,0)"/>
<path d="" fill="#8D9A8E" transform="translate(0,0)"/>
<path d="" fill="#636F63" transform="translate(0,0)"/>
<path d="" fill="#657068" transform="translate(0,0)"/>
<path d="" fill="#464E48" transform="translate(0,0)"/>
<path d="" fill="#110F10" transform="translate(0,0)"/>
<path d="" fill="#475149" transform="translate(0,0)"/>
<path d="" fill="#0D0F0D" transform="translate(0,0)"/>
<path d="" fill="#7A897B" transform="translate(0,0)"/>
<path d="" fill="#131612" transform="translate(0,0)"/>
<path d="" fill="#161513" transform="translate(0,0)"/>
<path d="" fill="#141917" transform="translate(0,0)"/>
<path d="" fill="#78867B" transform="translate(0,0)"/>
<path d="" fill="#8A968A" transform="translate(0,0)"/>
<path d="" fill="#4C564D" transform="translate(0,0)"/>
<path d="" fill="#C6D3C5" transform="translate(0,0)"/>
<path d="" fill="#B5C3B6" transform="translate(0,0)"/>
<path d="" fill="#6E776E" transform="translate(0,0)"/>
<path d="" fill="#6A766B" transform="translate(0,0)"/>
<path d="" fill="#646E65" transform="translate(0,0)"/>
<path d="" fill="#B6C4B6" transform="translate(0,0)"/>
<path d="" fill="#5E675F" transform="translate(0,0)"/>
<path d="" fill="#818F82" transform="translate(0,0)"/>
</svg>
